PathFileType	4	(x/y/z)	A01_PREF_T0015.trc
DataRate	CameraRate	NumFrames	NumMarkers	Units	OrigDataRate	OrigDataStartFrame	OrigNumFrames
240	240	5	48	mm	240	194	309
Frame#	Time	TOP_HEAD			R_AC			L_AC			R_ASIS			L_ASIS			R_PSIS			L_PSIS			SACRAL			L_IC			R_IC			L_GT			R_GT			R_LAT_KNEE			R_MED_KNEE			L_MED_KNEE			L_LAT_KNEE			R_TOE			L_TOE			R_1ST_MET			L_1ST_MET			L_5TH_MET			R_5TH_MET			R_LAT_ANK			R_MED_ANK			L_MED_ANK			L_LAT_ANK			L_HEEL_SUP			R_HEEL_SUP			L_HEEL_LAT			R_HEEL_LAT			L_HEEL_MED			R_HEEL_MED			R_LL_PROX_POST			R_LL_PROX_ANT			R_LL_DIST_ANT			R_LL_DIST_POST			R_THIGH_PROX_POST			R_THIGH_PROX_ANT			R_THIGH_DIST_ANT			R_THIGH_DIST_POST			L_PROS_PROX_ANT			L_PROS_PROX_POST			L_PROS_DIST_POST			L_PROS_DIST_ANT			L_THIGH_PROX_ANT			L_THIGH_PROX_POST			L_THIGH_DIST_POST			L_THIGH_DIST_ANT			
		X1	Y1	Z1	X2	Y2	Z2	X3	Y3	Z3	X4	Y4	Z4	X5	Y5	Z5	X6	Y6	Z6	X7	Y7	Z7	X8	Y8	Z8	X9	Y9	Z9	X10	Y10	Z10	X11	Y11	Z11	X12	Y12	Z12	X13	Y13	Z13	X14	Y14	Z14	X15	Y15	Z15	X16	Y16	Z16	X17	Y17	Z17	X18	Y18	Z18	X19	Y19	Z19	X20	Y20	Z20	X21	Y21	Z21	X22	Y22	Z22	X23	Y23	Z23	X24	Y24	Z24	X25	Y25	Z25	X26	Y26	Z26	X27	Y27	Z27	X28	Y28	Z28	X29	Y29	Z29	X30	Y30	Z30	X31	Y31	Z31	X32	Y32	Z32	X33	Y33	Z33	X34	Y34	Z34	X35	Y35	Z35	X36	Y36	Z36	X37	Y37	Z37	X38	Y38	Z38	X39	Y39	Z39	X40	Y40	Z40	X41	Y41	Z41	X42	Y42	Z42	X43	Y43	Z43	X44	Y44	Z44	X45	Y45	Z45	X46	Y46	Z46	X47	Y47	Z47	X48	Y48	Z48	

194	0.80678	377.4	1767.8	395.68	208.02	1495.8	591.26	192.64	1533.1	132.37	219.55	1066.7	542.37	208.27	983	195.92	-1.3011	1051.4	428.63	6.0882	1052.9	294.59	-13.989	1022.4	361.79	189.95	1117.9	158.38	181.92	1141.7	561.21	135.52	906.05	157.7	177.3	954.72	589.66	324.59	568.66	523.42	346.24	575.35	393.39	115.54	489.63	356.72	93.76	517.86	203.06	579.19	87.235	431.94	-182.32	62.323	263.19	496.62	61.369	387.12	-248.85	102.95	324.67	-282.5	127.53	202.09	472.5	49.412	519.88	348.29	102.96	498.26	355.82	112.66	395.34	-258.3	254.51	316.78	-289.97	275.22	253.9	-380.13	305.85	304.75	251.95	63.122	441.2	-400.7	284.84	273.04	261.85	40.518	475.8	-390.8	272.6	335.69	262.24	37.751	413.8	259.03	382.55	534.4	330.8	381.92	547.38	341.16	308.49	530.78	285.56	303.95	523.83	193.77	806.1	572.51	250.01	850.24	576.33	287.02	767.53	564.44	231.08	726.01	558.06	59	430.52	214.51	23.481	473.12	208	-28.7	438.72	219.6	11.045	401.45	223.74	176.96	760.29	190.59	108.51	774.24	175.04	110.85	697.89	183.93	173.67	686.48	197.23
195	0.81096	383.73	1768.2	395.63	214.05	1496.4	591.66	198.25	1533.9	132.91	225.25	1067	543.23	214.28	983.98	196.55	4.47	1051.8	429.14	11.894	1053.4	295.11	-8.1331	1022.8	362.27	195.61	1118.8	158.78	187.96	1142.4	561.37	142.09	906.77	158.18	182.69	954.83	590.21	328.66	568.42	523.84	350.87	575.26	393.68	127.11	488.83	355.89	104.2	518.71	202.75	579.62	85.913	431.99	-176.57	64.156	261.07	496.94	60.652	387.09	-241.96	105.74	323.5	-276.26	132.21	201.6	472.76	48.853	520.05	348.8	102.97	498.13	356.38	112.47	395.18	-249.51	257.8	317.15	-281.53	279.33	254.76	-370	311.23	306.83	252.21	63.406	441.19	-391.22	290.85	275.13	262.02	40.779	475.8	-381.03	277.84	337.56	262.38	38.046	413.73	261.87	382.92	534.49	333.65	381.75	547.42	343.47	308.27	530.72	287.89	304.12	523.77	198.42	806.28	572.73	255.06	850.11	576.99	291.73	767.24	565.12	235.64	726.01	558.38	68.672	431.59	213.73	33.529	474.6	207.9	-18.911	440.59	219.66	20.502	402.91	223.07	184.91	761.16	190.58	116.25	774.48	175.24	119.4	698.15	183.9	182.31	687.31	197.06
196	0.81514	390.05	1768.6	395.55	220.08	1497.1	592.03	203.79	1534.7	133.41	230.94	1067.3	544.1	220.24	985.02	197.16	10.216	1052.3	429.69	17.645	1053.8	295.67	-2.3124	1023.3	362.79	201.17	1119.7	159.15	194.04	1143	561.54	148.58	907.58	158.63	188.08	954.93	590.75	332.64	568.19	524.2	355.28	575.14	393.9	138.7	488.14	355.04	114.62	519.74	202.45	580	84.731	432.02	-170.37	66.192	258.76	497.23	60.03	387.05	-234.63	108.5	322.19	-269.65	136.87	201.03	472.98	48.389	520.21	349.27	103	497.97	356.89	112.29	395	-240.47	260.95	317.48	-272.87	283.32	255.63	-359.71	316.28	308.97	252.46	63.67	441.17	-381.54	296.54	277.28	262.18	41.028	475.79	-371.01	282.73	339.48	262.52	38.316	413.67	264.59	383.27	534.51	336.38	381.58	547.41	345.67	308.05	530.6	290.12	304.29	523.64	203.03	806.46	572.94	260.06	849.96	577.62	296.35	766.93	565.75	240.11	726.01	558.68	78.391	432.82	212.93	43.6	476.21	207.8	-9.064	442.54	219.73	30.033	404.49	222.38	192.81	762.12	190.53	123.94	774.81	175.42	127.9	698.53	183.84	190.91	688.24	196.86
197	0.81932	396.36	1769	395.43	226.14	1497.9	592.37	209.26	1535.5	133.88	236.63	1067.5	544.97	226.16	986.12	197.73	15.939	1052.8	430.27	23.344	1054.3	296.27	3.4733	1023.7	363.34	206.65	1120.7	159.5	200.16	1143.7	561.71	155.02	908.47	159.04	193.47	955.03	591.28	336.51	567.95	524.52	359.47	575	394.05	150.32	487.56	354.16	125.01	520.95	202.16	580.34	83.675	432.04	-163.74	68.404	256.28	497.5	59.495	386.99	-226.86	111.21	320.77	-262.7	141.48	200.38	473.18	48.008	520.35	349.7	103.05	497.79	357.34	112.13	394.79	-231.2	263.96	317.78	-264	287.17	256.49	-349.27	320.98	311.13	252.68	63.915	441.14	-371.7	301.87	279.48	262.32	41.267	475.78	-360.79	287.26	341.42	262.66	38.564	413.61	267.18	383.61	534.45	338.99	381.41	547.36	347.77	307.84	530.44	292.25	304.45	523.44	207.61	806.66	573.13	265	849.83	578.21	300.9	766.63	566.35	244.5	726.02	558.96	88.155	434.21	212.1	53.692	477.95	207.72	0.83862	444.58	219.81	39.638	406.19	221.68	200.66	763.18	190.46	131.6	775.24	175.56	136.36	699	183.76	199.46	689.27	196.64
198	0.8235	402.66	1769.5	395.27	232.2	1498.7	592.69	214.66	1536.3	134.3	242.31	1067.8	545.83	232.03	987.27	198.28	21.637	1053.3	430.88	28.991	1054.8	296.9	9.2241	1024.2	363.93	212.05	1121.6	159.83	206.3	1144.4	561.9	161.39	909.43	159.44	198.87	955.13	591.79	340.3	567.72	524.78	363.49	574.84	394.14	161.95	487.1	353.25	135.38	522.32	201.88	580.64	82.731	432.05	-156.67	70.762	253.64	497.74	59.039	386.92	-218.67	113.84	319.23	-255.4	146	199.66	473.34	47.7	520.48	350.11	103.12	497.6	357.76	111.97	394.56	-221.71	266.8	318.04	-254.92	290.86	257.33	-338.71	325.33	313.3	252.88	64.147	441.1	-361.71	306.82	281.69	262.46	41.496	475.75	-350.37	291.4	343.35	262.78	38.795	413.55	269.66	383.94	534.32	341.47	381.24	547.26	349.77	307.64	530.24	294.29	304.61	523.18	212.15	806.89	573.32	269.89	849.71	578.76	305.38	766.34	566.89	248.84	726.04	559.22	97.966	435.74	211.27	63.805	479.8	207.65	10.796	446.67	219.89	49.318	407.99	220.96	208.48	764.33	190.36	139.23	775.77	175.67	144.78	699.59	183.64	207.97	690.4	196.38
